<svg
  width="64"
  height="64"
  viewBox="0 0 64 64"
  fill="currentColor"
  xmlns="http://www.w3.org/2000/svg"
  aria-label="Padlock Icon"
>
  <!-- Padlock shackle + body (single path) -->
  <path d="
    M20,28 
    v-8
    c0-8.8,7.2-16,16-16
    s16,7.2,16,16
    v8 
    h-4
    v-8
    c0-6.6-5.4-12-12-12
    s-12,5.4-12,12
    v8 
    h-4 
    Z
    M16,32
    h36
    c2.2,0,4,1.8,4,4
    v20
    c0,2.2-1.8,4-4,4
    H16
    c-2.2,0-4-1.8-4-4
    V36
    c0-2.2,1.8-4,4-4
    Z
  " />
</svg>
